<?xml version="1.0" encoding="utf-8"?>
<!-- Generator: Adobe Illustrator 19.0.0, SVG Export Plug-In . SVG Version: 6.00 Build 0)  -->
<svg version="1.1" id="Layer_1" xmlns="http://www.w3.org/2000/svg" xmlns:xlink="http://www.w3.org/1999/xlink" x="0px" y="0px"
	 viewBox="0 0 283.5 283.5" style="enable-background:new 0 0 283.5 283.5;" xml:space="preserve">
<style type="text/css">
	.st0{fill:none;}
	.st1{fill:#867B6C;}
	.st2{fill:#966B55;}
	.st3{fill:#623C25;}
	.st4{fill:#95171A;}
	.st5{fill:url(#Diamond_Harlequin_Color);stroke:#231F20;stroke-miterlimit:10;}
</style>
<pattern  width="60.3" height="68.2" patternUnits="userSpaceOnUse" id="Diamond_Harlequin_Color" viewBox="10.1 -85.3 60.3 68.2" style="overflow:visible;">
	<g>
		<polygon class="st0" points="10.1,-85.3 70.4,-85.3 70.4,-17.1 10.1,-17.1 		"/>
		<g>
			<polygon class="st1" points="80.4,-17.1 70.4,-34.1 60.3,-17.1 70.4,0 			"/>
		</g>
		<g>
			<polygon class="st1" points="80.4,-17.1 70.4,-34.1 60.3,-17.1 70.4,0 			"/>
			<polygon class="st2" points="60.3,-17.1 50.3,-34.1 40.2,-17.1 50.3,0 			"/>
			<polygon class="st3" points="40.2,-17.1 30.2,-34.1 20.1,-17.1 30.2,0 			"/>
			<polygon class="st1" points="20.1,-17.1 10.1,-34.1 0,-17.1 10.1,0 			"/>
		</g>
		<g>
			<polygon class="st1" points="20.1,-17.1 10.1,-34.1 0,-17.1 10.1,0 			"/>
		</g>
		<g>
			<polygon class="st1" points="80.4,-17.1 70.4,-34.1 60.3,-17.1 70.4,0 			"/>
			<polygon class="st4" points="80.4,-51.2 70.4,-68.2 60.3,-51.2 70.4,-34.1 			"/>
			<polygon class="st1" points="80.4,-85.3 70.4,-102.4 60.3,-85.3 70.4,-68.2 			"/>
		</g>
		<g>
			<polygon class="st1" points="80.4,-17.1 70.4,-34.1 60.3,-17.1 70.4,0 			"/>
			<polygon class="st2" points="60.3,-17.1 50.3,-34.1 40.2,-17.1 50.3,0 			"/>
			<polygon class="st3" points="40.2,-17.1 30.2,-34.1 20.1,-17.1 30.2,0 			"/>
			<polygon class="st1" points="20.1,-17.1 10.1,-34.1 0,-17.1 10.1,0 			"/>
			<polygon class="st4" points="80.4,-51.2 70.4,-68.2 60.3,-51.2 70.4,-34.1 			"/>
			<polygon class="st3" points="60.3,-51.2 50.3,-68.2 40.2,-51.2 50.3,-34.1 			"/>
			<polygon class="st2" points="40.2,-51.2 30.2,-68.2 20.1,-51.2 30.2,-34.1 			"/>
			<polygon class="st4" points="20.1,-51.2 10.1,-68.2 0,-51.2 10.1,-34.1 			"/>
			<polygon class="st1" points="80.4,-85.3 70.4,-102.4 60.3,-85.3 70.4,-68.2 			"/>
			<polygon class="st2" points="60.3,-85.3 50.3,-102.4 40.2,-85.3 50.3,-68.2 			"/>
			<polygon class="st3" points="40.2,-85.3 30.2,-102.4 20.1,-85.3 30.2,-68.2 			"/>
			<polygon class="st1" points="20.1,-85.3 10.1,-102.4 0,-85.3 10.1,-68.2 			"/>
		</g>
		<g>
			<polygon class="st1" points="20.1,-17.1 10.1,-34.1 0,-17.1 10.1,0 			"/>
			<polygon class="st4" points="20.1,-51.2 10.1,-68.2 0,-51.2 10.1,-34.1 			"/>
			<polygon class="st1" points="20.1,-85.3 10.1,-102.4 0,-85.3 10.1,-68.2 			"/>
		</g>
		<g>
			<polygon class="st1" points="80.4,-85.3 70.4,-102.4 60.3,-85.3 70.4,-68.2 			"/>
		</g>
		<g>
			<polygon class="st1" points="80.4,-85.3 70.4,-102.4 60.3,-85.3 70.4,-68.2 			"/>
			<polygon class="st2" points="60.3,-85.3 50.3,-102.4 40.2,-85.3 50.3,-68.2 			"/>
			<polygon class="st3" points="40.2,-85.3 30.2,-102.4 20.1,-85.3 30.2,-68.2 			"/>
			<polygon class="st1" points="20.1,-85.3 10.1,-102.4 0,-85.3 10.1,-68.2 			"/>
		</g>
		<g>
			<polygon class="st1" points="20.1,-85.3 10.1,-102.4 0,-85.3 10.1,-68.2 			"/>
		</g>
	</g>
</pattern>
<path id="XMLID_1_" class="st5" d="M20.2,31.4V251c0,6.2,5,11.3,11.3,11.3h219.6c6.2,0,11.3-5,11.3-11.3V31.4
	c0-6.2-5-11.3-11.3-11.3H31.4C25.2,20.1,20.2,25.2,20.2,31.4z"/>
<g id="XMLID_161_">
	<path id="XMLID_174_" d="M89.4,279.5c2.2-1.8,3.4-4.1,3.4-6.9c0-2.6-1.1-5-3.2-7c-1.1-1.1-2.3-1.8-3.5-2.4c0,0,0,0,0,0
		c-1.2-0.5-2.4-0.7-3.7-0.7l-1.4,0.1c-1,0.1-2.2,0.4-3.6,0.9c-2.1,0.6-4.5,1.8-7.4,3.3c-2.8,1.5-5.2,2.6-7.1,3.3
		c-0.2-0.3-0.4-0.7-0.7-1c-0.3-0.3-0.5-0.6-0.8-0.8c1.2-0.4,2.5-1.2,4.3-2.4c1.6-1.1,2.5-1.7,2.7-1.8c0.4-0.2,0.8-0.4,1.2-0.6
		c-1.2,0-2.5,0-3.7,0c-0.7,0.4-1.5,0.9-2.4,1.6c-1.4,1-2.6,1.7-3.6,2.1c-1.9-1.2-4.1-1.7-6.2-2.2c0.3-0.1,0.6-0.2,0.9-0.4
		c0,0,0,0,0,0c-0.4,0.1-0.8,0.2-1.3,0.3c-0.4-0.1-0.9-0.2-1.3-0.3c0,0,0,0,0,0c0.3,0.1,0.6,0.2,0.9,0.4c-2.1,0.5-4.3,1.1-6.2,2.2
		c-1-0.4-2.2-1.1-3.6-2.1c-1.2-0.8-2.1-1.4-2.9-1.8c2.1,0.1,4.3,0.1,6.6,0.1c1.2,0,2.5,0,3.7,0.1c1.3,0,2.5,0,3.8,0
		c2.6,0,5.2,0,7.7,0c1.3,0,2.5,0,3.8,0c1.2,0,2.5,0,3.7,0c0.1,0,0.2,0,0.3,0c0.6,0,1.3,0,1.9,0c0.6,0,1.3,0,1.9,0
		c1.3,0,2.5,0,3.7-0.1c1.4-0.5,2.6-0.8,3.6-0.9l1.4-0.1c1.3,0,2.6,0.2,3.8,0.7c1.6,0,3.1-0.1,4.6-0.2c1.9-0.1,3.7-0.2,5.3-0.2
		c1.6-0.1,3-0.2,4.1-0.2c1.1-0.1,2-0.1,2.6-0.2c0.6,0,0.9-0.1,0.9-0.1s-0.3,0-0.9-0.1c-0.6,0-1.5-0.1-2.6-0.2
		c-1.1-0.1-2.5-0.1-4.1-0.2c-1.6-0.1-3.4-0.2-5.3-0.2c-1.9-0.1-4.1-0.1-6.3-0.2c-2.2-0.1-4.6-0.1-7-0.2c-1.2,0-2.5,0-3.7-0.1
		c-0.6,0-1.3,0-1.9,0c-0.6,0-1.3,0-1.9,0c-2.6,0-5.2,0-7.7,0c-2.6,0-5.2,0-7.7,0c-1.3,0-2.5,0-3.8,0c-1.3,0-2.5,0-3.7,0.1
		c-4.9,0.1-9.4,0.2-13.3,0.4c-1.9,0.1-3.7,0.2-5.3,0.2c-1.4,0.1-2.6,0.1-3.7,0.2c0,0.1,0,0.2,0,0.3c0,0,0,0.1,0,0.1c0,0,0,0.1,0,0.1
		c0,0.5-0.1,0.9-0.3,1.4c0.1,0,0.2,0,0.3,0c2.2,0,5.4,1.1,9.9,3.4c3.6,1.9,6.1,3.1,7.5,3.6c0.4,0.1,0.7,0.2,1.1,0.3
		c-0.4,1.1-0.4,2.2-0.2,3.4c-1.9-0.4-4.2-1.4-6.8-2.9c-1.5-0.9-2.6-1.5-3.3-1.9c-1.2-0.6-2.3-1.1-3.3-1.4c-1.2-0.4-2.4-0.5-3.4-0.5
		c-2.3,0-4.4,0.7-7.1,2.4l0.3,0.1c1.5-0.8,2.9-1.2,4.2-1.4c-1.4,0.9-1.4,2.9-0.5,3.1c1,0.2,1.3-0.6,0.7-0.6
		c-0.5-0.1-0.5,0.3-0.5,0.3c-0.2,0-0.6-0.2-0.4-1.1c0.3-1,1.9-0.7,2.6,0c0.6,0.7,1.7,1.6,2.9,0c0.4-0.5,0.7-0.7,1.1-0.9
		c0.1,0,0.2,0.1,0.3,0.1c-0.8,0.3-0.8,1.1-0.7,1.2c0.1,0.1,0.7,0.3,1.2-0.1c0.2-0.2,0.5-0.3,0.7-0.4c0,0-0.1,0-0.1,0l0,0
		c0,0,0.1,0,0.2,0c0.5,0.3,1.1,0.6,1.7,0.9c0.2,0.4,0.2,0.8,0.2,0.8c1.3,0,2.5,0.7,2.5,0.7s0,0,0,0c1.7,0.9,3.3,1.6,4.9,2.1
		c1.1,0.3,2.1,0.5,3.1,0.6c0.4,0.8,1,1.6,1.9,2.1c0.9,0.6,2.2,1,3.7,0.6c0.9-0.2,1.9-0.9,2.6-1.9c0.5-0.8,0.8-2,0.1-3.3
		c-0.5-1-2.9-2.1-4.1-0.6c-0.4,0.5-0.5,1.4-0.1,1.9c-0.8,0.2-1.7,0.3-2.4,0.3c-0.2,0-0.4,0-0.6,0c-0.4-1.1-0.4-2.4-0.1-3.4
		c0.7,0.1,1.5,0.2,2.3,0.2c1.9,0,3.9-0.8,5.1-1.6c-1.5,0.4-2.7,0.7-3.9,0.7c-0.8,0-1.8-0.2-2.9-0.5c0.4-0.7,1-1.3,1.6-1.8
		c0.2,0,0.4,0.1,0.6,0.1c2.3,0,4.4-0.8,5.7-2l-0.2-0.1c-1.1,0.5-1.6,0.8-1.7,0.8c-0.6,0.3-1.2,0.4-1.7,0.4c-0.4,0-0.8-0.1-1.2-0.2
		c0.5-0.3,1.1-0.6,1.6-0.8c1.3-0.6,2.7-1.1,3.9-1.6c1.3,0.5,2.6,1,3.9,1.6c0.5,0.2,1.1,0.5,1.6,0.8c-0.4,0.1-0.8,0.2-1.2,0.2
		c-0.5,0-1.1-0.1-1.7-0.4c-0.1,0-0.7-0.3-1.7-0.8l-0.2,0.1c1.3,1.2,3.4,2,5.7,2c0.2,0,0.4,0,0.6,0c0.6,0.5,1.2,1.1,1.6,1.8
		c-1.1,0.3-2.1,0.5-2.9,0.5c-1.2,0-2.5-0.3-3.9-0.7c1.1,0.9,3.2,1.6,5.1,1.6c0.8,0,1.6-0.1,2.3-0.2c0.3,1,0.3,2.3-0.1,3.4
		c-0.2,0-0.4,0-0.6,0c-0.7,0-1.6-0.1-2.4-0.4c0.4-0.5,0.3-1.4-0.1-1.9c-1.2-1.5-3.6-0.4-4.1,0.6c-0.7,1.3-0.4,2.5,0.1,3.3
		c0.6,1,1.6,1.7,2.6,1.9c1.4,0.4,2.7,0,3.7-0.6c0.9-0.5,1.5-1.3,1.9-2.1c0.9-0.1,2-0.3,3.1-0.6c1.6-0.4,3.2-1.1,4.9-2.1c0,0,0,0,0,0
		s1.2-0.7,2.5-0.7c0,0,0-0.4,0.2-0.8c0.6-0.3,1.2-0.6,1.7-0.9c0.1,0,0.2,0,0.2,0l0,0c0,0-0.1,0-0.1,0c0.3,0.1,0.5,0.2,0.7,0.4
		c0.5,0.5,1,0.2,1.2,0.1c0.2-0.1,0.2-0.9-0.7-1.2c0.1,0,0.2-0.1,0.3-0.1c0.4,0.1,0.8,0.4,1.1,0.9c1.2,1.6,2.3,0.7,2.9,0
		c0.6-0.7,2.3-1.1,2.6,0c0.2,0.9-0.2,1.1-0.4,1.1c0,0,0-0.4-0.5-0.3c-0.5,0.1-0.2,0.9,0.7,0.6c0.9-0.2,0.9-2.2-0.5-3.1
		c1.3,0.2,2.7,0.7,4.2,1.4l0.3-0.1c-2.6-1.7-4.8-2.4-7.1-2.4c-1.1,0-2.2,0.2-3.4,0.5c-1,0.3-2.1,0.8-3.3,1.4c-0.7,0.4-1.8,1-3.3,1.9
		c-2.7,1.5-5,2.5-6.9,2.9c0.3-1.2,0.2-2.4-0.1-3.4c0.4-0.1,0.8-0.2,1.2-0.4c1.4-0.5,3.9-1.7,7.5-3.6c4.5-2.4,7.7-3.4,9.9-3.4
		c2.9,0,5.3,0.9,7.3,2.7c0.4,0.3,0.7,0.7,1,1.1c0,0.1,0,0.1,0,0.2c-0.1,0.5-0.4,1-0.4,1.5c0,0.4,0.1,0.8,0,1.1
		c0.6,0,1.3-0.2,1.6-0.7c0,0,0,0.1,0,0.1c-0.2,0.5-0.5,1-0.9,1.4c-0.1,0.2-1.1,1.3-0.8,1.5c-1,0.1-2.1,0.5-2.7,1.3
		c-0.1,0.1-0.3,0.8-0.4,0.8c-0.3,0,0.1-0.6-0.5-0.4c-0.4,0.1-0.3,0.8-0.2,1.1c0.3,0.6,1,1,1.6,1c1.1,0.1,2.4-0.1,3.2-0.9
		c-0.5,0.9-1.8,1.1-2.8,1.1c-0.3,0-2.8-0.2-2.7,0.3c-0.4-0.8-1.3-1.3-2.2-1.3c-0.8,0-1.5,0.4-2.3,0.3c-0.5,0-1.6-0.5-1.3-1.2
		c0.2-0.5,0.9-0.3,1.2,0c0.5-0.2,0.2-0.5-0.1-0.7c-0.4-0.1-1.1,0-1.5,0.3c-0.9,0.7-1.1,2.1-0.9,3.2c0.2,1,0.8,1.9,1.6,2.6l0,0.1
		c0,0,3,2.2,7.4,0.1c0,0,0.1,0,0.1-0.1c0,0,0,0,0,0c0,0,0.1,0,0.1,0C88,280.4,88.6,280.1,89.4,279.5z M47.9,274.8
		c0.2-0.1,0.4-0.2,0.5-0.3C48.3,274.7,48.1,274.9,47.9,274.8z M47.5,275c0.5,0.3,1.3,0,1.3-0.6c0-0.2-0.2-0.2-0.3-0.2
		c-0.3,0.1-0.6,0.2-0.9,0.3c-0.1-0.1-0.1-0.3-0.2-0.4c-0.1-0.6,0.4-1.2,0.9-1.4c0.9-0.3,1.8,0.2,2.2,1c0.2,0.4,0.3,1,0.2,1.4
		c-0.1,0.5-0.4,1.2-0.9,1.6c-1.1,1-2.7,1-3.7,0.5c-0.8-0.4-1.3-0.9-1.7-1.5C45.5,275.7,46.5,275.4,47.5,275z M45.1,268.2
		c-0.3,0.3-0.6,0.5-0.8,0.8c-0.2,0.3-0.5,0.6-0.7,0.9c-1.9-0.7-4.3-1.8-7.1-3.3c-4-2.2-7.3-3.5-9.7-4c0.4,0,0.9,0,1.4,0.1
		c1.3,0.1,2.8,0.1,4.4,0.2c0,0,0,0-0.1,0l0.2,0c0.3,0,0.5,0,0.8,0c0.8,0,1.5,0.1,2.3,0.1c0.8,0.2,1.6,0.5,2.3,1
		c0.2,0.1,1.1,0.7,2.7,1.8C42.6,267.1,44,267.8,45.1,268.2z M58.5,274.8c-0.2,0.1-0.4-0.1-0.5-0.3C58.2,274.7,58.4,274.8,58.5,274.8
		z M61.9,275.8c-0.4,0.6-0.9,1.2-1.7,1.5c-1,0.5-2.6,0.5-3.7-0.5c-0.4-0.4-0.8-1.1-0.9-1.6c-0.1-0.4,0-1,0.2-1.4
		c0.4-0.8,1.3-1.4,2.2-1c0.4,0.2,1,0.8,0.9,1.4c0,0.2-0.1,0.3-0.1,0.4c-0.3-0.1-0.6-0.2-0.9-0.3c0,0,0,0,0,0l0,0l0,0
		c-0.1,0-0.3,0-0.3,0.2c0,0.5,0.8,0.8,1.3,0.6C59.9,275.4,61,275.7,61.9,275.8z"/>
	<path id="XMLID_173_" d="M18.9,280.6c4.3,2.1,7.4-0.1,7.4-0.1l0-0.1c0.9-0.6,1.4-1.5,1.6-2.6c0.2-1,0.1-2.4-0.9-3.2
		c-0.3-0.3-1-0.4-1.5-0.3c-0.4,0.1-0.6,0.5-0.1,0.7c0.3-0.3,1-0.5,1.2,0c0.3,0.7-0.7,1.2-1.3,1.2c-0.8,0.1-1.5-0.3-2.3-0.3
		c-0.9,0-1.8,0.5-2.2,1.3c0.1-0.5-2.4-0.3-2.7-0.3c-0.9,0-2.2-0.3-2.8-1.1c0.8,0.7,2.1,1,3.2,0.9c0.6-0.1,1.4-0.5,1.6-1
		c0.2-0.3,0.2-0.9-0.2-1.1c-0.5-0.2-0.2,0.4-0.5,0.4c-0.1,0-0.3-0.7-0.4-0.8c-0.6-0.8-1.7-1.2-2.7-1.3c0.4-0.2-0.6-1.3-0.8-1.5
		c-0.3-0.4-0.7-0.9-0.9-1.4c0,0,0-0.1,0-0.1c0.3,0.6,1,0.7,1.6,0.7c-0.1-0.4,0-0.7,0-1.1c0-0.5-0.3-1-0.4-1.5c0,0,0,0,0,0
		c0.4-0.3,0.8-0.7,1.2-1.1c0.3-0.3,0.6-0.7,0.9-1c0,0,0,0,0,0c0,0,0,0,0,0c-0.3-0.2-0.6-0.4-0.8-0.7c0,0,0,0,0,0
		c0,0-0.1,0.1-0.1,0.1c-0.2,0.1-0.3,0.3-0.5,0.5c-0.6,0.6-1.2,1.3-1.6,1.9c0,0-0.1,0-0.1,0.1c-0.1,0-0.1,0-0.2,0
		c-0.5-0.1-1-0.4-1.5-0.4c-0.4,0-0.8,0.1-1.1,0c0,0.6,0.2,1.3,0.7,1.6c0,0-0.1,0-0.1,0c-0.5-0.2-1-0.5-1.4-0.9
		c-0.2-0.1-1.3-1.1-1.5-0.8c-0.1-1-0.5-2.1-1.3-2.7C8.7,264.3,8,264.1,8,264c0-0.3,0.6,0.1,0.4-0.5c-0.1-0.4-0.8-0.3-1.1-0.2
		c-0.6,0.3-1,1-1,1.6c-0.1,1.1,0.1,2.4,0.9,3.2c-0.9-0.5-1.1-1.8-1.1-2.8c0-0.3,0.2-2.8-0.3-2.7c0.8-0.4,1.3-1.3,1.3-2.2
		c0-0.8-0.3-1.5-0.3-2.3c0-0.5,0.5-1.6,1.2-1.3c0.5,0.2,0.3,0.9,0,1.2c0.2,0.5,0.5,0.2,0.7-0.1c0.1-0.4,0-1.1-0.3-1.5
		c-0.7-0.9-2.1-1.1-3.2-0.9c-1,0.2-1.9,0.8-2.6,1.6l-0.1,0c0,0-2.2,3-0.1,7.4c0,0,0,0.1,0.1,0.1c0,0,0,0,0,0c0,0,0,0.1,0,0.1
		c0.1,0.3,0.4,0.8,1,1.7c1.8,2.2,4.1,3.4,6.9,3.4c1.4,0,2.7-0.3,4-0.9c-0.5,1.1-0.7,2.2-0.7,3.5c0,2.9,1.1,5.2,3.4,6.9
		c0.8,0.6,1.4,1,1.7,1c0,0,0.1,0,0.1,0c0,0,0,0,0,0C18.8,280.6,18.9,280.6,18.9,280.6z"/>
	<path id="XMLID_164_" d="M21,254.6c0.1-1.6,0.2-3.4,0.2-5.3c0.1-3.9,0.3-8.5,0.4-13.4c0-1.2,0-2.5,0.1-3.7c0-1.3,0-2.5,0-3.8
		c0-2.6,0-5.2,0-7.8c0-2.6,0-5.2,0-7.8c0-0.6,0-1.3,0-1.9c0-0.6,0-1.3,0-1.9c0-1.3,0-2.5-0.1-3.7c0-2.4-0.1-4.8-0.2-7.1
		c-0.1-2.2-0.1-4.4-0.2-6.3c-0.1-2-0.2-3.8-0.2-5.3c-0.1-1.6-0.2-3-0.2-4.1c-0.1-1.1-0.1-2-0.2-2.7c0-0.6-0.1-0.9-0.1-0.9
		s0,0.3-0.1,0.9c0,0.6-0.1,1.5-0.2,2.7c-0.1,1.1-0.1,2.5-0.2,4.1c-0.1,1.6-0.2,3.4-0.2,5.3c-0.1,1.7-0.1,3.6-0.2,5.5
		c-0.5-1.1-1.3-2.2-2.2-3.2c-2-2.1-4.4-3.2-7-3.2c-2.9,0-5.2,1.1-6.9,3.4c-0.6,0.8-1,1.4-1,1.7c0,0,0,0.1,0,0.1c0,0,0,0,0,0
		c0,0,0,0.1-0.1,0.1c-2.1,4.3,0.1,7.4,0.1,7.4l0.1,0c0.6,0.9,1.5,1.4,2.6,1.6c1,0.2,2.4,0.1,3.2-0.9c0.3-0.3,0.4-1,0.3-1.5
		c-0.1-0.4-0.5-0.6-0.7-0.1c0.3,0.3,0.5,1,0,1.2c-0.7,0.3-1.2-0.7-1.2-1.3c-0.1-0.8,0.3-1.5,0.3-2.3c0-0.9-0.4-1.8-1.3-2.2
		c0.5,0.1,0.3-2.4,0.3-2.7c0-0.9,0.3-2.2,1.1-2.8c-0.7,0.8-1,2.1-0.9,3.2c0.1,0.6,0.5,1.4,1,1.6c0.3,0.2,0.9,0.2,1.1-0.2
		c0.2-0.5-0.4-0.2-0.4-0.5c0-0.1,0.7-0.3,0.8-0.4c0.8-0.6,1.2-1.7,1.3-2.7c0.2,0.4,1.3-0.6,1.5-0.8c0.4-0.3,0.9-0.7,1.4-0.9
		c0,0,0.1,0,0.1,0c-0.6,0.3-0.7,1-0.7,1.6c0.4-0.1,0.7,0,1.1,0c0.5,0,1-0.3,1.5-0.4c0.1,0,0.1,0,0.2,0c0.4,0.3,0.7,0.6,1.1,1
		c1.8,1.9,2.7,4.3,2.7,7.3c0,2.2-1.1,5.4-3.4,9.9c-1.9,3.6-3.1,6.1-3.6,7.5c-0.1,0.4-0.3,0.8-0.4,1.2c-1.1-0.4-2.2-0.4-3.4-0.1
		c0.4-1.9,1.4-4.2,2.9-6.9c0.9-1.5,1.5-2.6,1.9-3.3c0.6-1.2,1.1-2.3,1.4-3.3c0.4-1.2,0.5-2.4,0.5-3.4c0-2.3-0.7-4.4-2.4-7.1
		l-0.1,0.3c0.8,1.5,1.2,2.9,1.4,4.2c-0.9-1.4-2.9-1.4-3.1-0.5c-0.2,1,0.6,1.3,0.6,0.7c0.1-0.5-0.3-0.5-0.3-0.5
		c0-0.2,0.2-0.6,1.1-0.4c1,0.3,0.7,1.9,0,2.6c-0.7,0.6-1.6,1.7,0,2.9c0.5,0.4,0.7,0.7,0.9,1.1c0,0.1-0.1,0.2-0.1,0.3
		c-0.3-0.8-1.1-0.8-1.2-0.7c-0.1,0.1-0.4,0.7,0.1,1.2c0.2,0.2,0.4,0.5,0.4,0.7c0,0,0-0.1,0-0.1l0.1,0c0,0,0,0.1,0.1,0.2
		c-0.3,0.5-0.5,1.1-0.9,1.7c-0.4,0.2-0.8,0.2-0.8,0.2c0,1.3-0.7,2.5-0.7,2.5s0,0,0,0c-0.9,1.7-1.6,3.3-2.1,4.9
		c-0.3,1.1-0.5,2.2-0.6,3.1c-0.8,0.4-1.6,1-2.1,1.9c-0.6,0.9-1,2.2-0.6,3.7c0.2,0.9,0.9,1.9,1.9,2.6c0.8,0.5,2,0.8,3.3,0.1
		c1-0.5,2.1-2.9,0.6-4.1c-0.5-0.4-1.4-0.5-1.9-0.1c-0.2-0.8-0.4-1.7-0.4-2.4c0-0.2,0-0.4,0-0.6c1.1-0.4,2.4-0.4,3.4-0.1
		c-0.1,0.7-0.2,1.5-0.2,2.3c0,1.9,0.8,3.9,1.6,5.1c-0.4-1.5-0.7-2.7-0.7-3.9c0-0.8,0.2-1.7,0.5-2.9c0.7,0.4,1.3,1,1.8,1.6
		c0,0.2,0,0.4,0,0.6c0,2.3,0.8,4.4,2,5.7l0.1-0.2c-0.5-1.1-0.8-1.6-0.8-1.7c-0.3-0.6-0.4-1.2-0.4-1.7c0-0.4,0.1-0.8,0.2-1.2
		c0.3,0.5,0.6,1.1,0.8,1.6c0.6,1.3,1.1,2.7,1.6,3.9c-0.5,1.3-1,2.6-1.6,3.9c-0.2,0.5-0.5,1.1-0.8,1.6c-0.1-0.4-0.2-0.9-0.2-1.2
		c0-0.5,0.1-1.1,0.4-1.7c0-0.1,0.3-0.7,0.8-1.7l-0.1-0.2c-1.2,1.3-2,3.4-2,5.7c0,0.2,0,0.4,0.1,0.6c-0.5,0.6-1.1,1.2-1.8,1.6
		c-0.3-1.2-0.5-2.1-0.5-2.9c0-1.2,0.3-2.5,0.7-3.9c-0.9,1.1-1.6,3.2-1.6,5.1c0,0.8,0.1,1.6,0.2,2.3c-1,0.3-2.3,0.3-3.4-0.1
		c0-0.2,0-0.4,0-0.6c0-0.7,0.1-1.6,0.4-2.4c0.5,0.4,1.4,0.3,1.9-0.1c1.5-1.2,0.4-3.6-0.6-4.1c-1.3-0.7-2.5-0.4-3.3,0.1
		c-1,0.6-1.7,1.6-1.9,2.6c-0.4,1.4,0,2.7,0.6,3.7c0.6,0.9,1.3,1.5,2.1,1.9c0.1,0.9,0.3,2,0.6,3.1c0.4,1.6,1.1,3.2,2.1,4.9
		c0,0,0,0,0,0s0.7,1.2,0.7,2.5c0,0,0.4,0,0.8,0.2c0.3,0.6,0.6,1.2,0.9,1.7c0,0.1-0.1,0.2-0.1,0.2l-0.1,0c0,0,0-0.1,0-0.1
		c0,0.3-0.2,0.5-0.4,0.7c-0.5,0.5-0.2,1-0.1,1.2c0.1,0.2,0.9,0.2,1.2-0.7c0,0.1,0.1,0.2,0.1,0.3c-0.1,0.4-0.4,0.8-0.9,1.1
		c-1.6,1.2-0.7,2.3,0,2.9c0.7,0.6,1.1,2.3,0,2.6c-0.9,0.2-1.1-0.2-1.1-0.4c0,0,0.4,0,0.3-0.5c-0.1-0.5-0.9-0.2-0.6,0.7
		c0.2,0.9,2.2,0.9,3.1-0.5c-0.2,1.3-0.7,2.7-1.4,4.2l0.1,0.3c1.7-2.6,2.4-4.8,2.4-7.1c0-1.1-0.2-2.2-0.5-3.4c-0.3-1-0.8-2.1-1.4-3.3
		c-0.4-0.7-1-1.8-1.9-3.3c-1.5-2.7-2.5-4.9-2.9-6.8c1.2,0.3,2.4,0.2,3.4-0.2c0.1,0.4,0.2,0.8,0.3,1.1c0.5,1.4,1.7,3.9,3.6,7.5
		c2.1,4.1,3.2,7.1,3.4,9.3c0.4-0.2,0.8-0.3,1.3-0.3c0.1,0,0.1,0,0.2,0c0,0,0.1,0,0.1,0c0.1,0,0.2,0,0.3,0
		C20.8,257.3,20.9,256,21,254.6z M7.9,224.8c-0.3,0.5,0,1.3,0.6,1.3c0.2,0,0.2-0.2,0.2-0.3l0,0v0c0,0,0,0,0,0
		c-0.1-0.3-0.2-0.6-0.3-0.9c0.1-0.1,0.3-0.1,0.4-0.2c0.6-0.1,1.2,0.4,1.4,0.9c0.3,0.9-0.2,1.8-1,2.2c-0.4,0.2-1,0.3-1.4,0.2
		c-0.5-0.1-1.2-0.4-1.6-0.9c-1-1.1-1-2.7-0.5-3.7c0.4-0.8,0.9-1.3,1.5-1.7C7.2,222.7,7.5,223.8,7.9,224.8z M8.1,225.1
		c0.1,0.2,0.2,0.3,0.3,0.5C8.2,225.6,8,225.3,8.1,225.1z M5.6,237.4c-0.5-1-0.5-2.6,0.5-3.7c0.4-0.4,1.1-0.8,1.6-0.9
		c0.4-0.1,1,0,1.4,0.2c0.8,0.4,1.4,1.3,1,2.2c-0.2,0.4-0.8,1-1.4,0.9c-0.2,0-0.3-0.1-0.4-0.2c0.1-0.3,0.2-0.6,0.3-0.9
		c0.1-0.1,0-0.3-0.2-0.3c-0.5,0-0.8,0.8-0.6,1.3c-0.4,1-0.7,2-0.8,3C6.5,238.8,6,238.2,5.6,237.4z M8.1,235.8
		c-0.1-0.2,0.1-0.5,0.3-0.5C8.3,235.4,8.2,235.6,8.1,235.8z M13.9,221.6c-0.3-0.3-0.6-0.5-0.9-0.7c0.7-1.9,1.8-4.3,3.3-7.1
		c1.5-2.7,2.5-5,3.2-7c0,0.7,0,1.5,0,2.2c0,0.6,0,1.3,0,1.9c0,0.6,0,1.3,0,1.9c0,0.6,0,1.1,0,1.7c-0.1,0.3-0.3,0.6-0.5,0.9
		c-0.1,0.2-0.7,1.1-1.8,2.7c-1.2,1.8-2,3.2-2.4,4.3C14.4,222.1,14.2,221.8,13.9,221.6z M15.8,237c1.1-1.9,1.7-4.1,2.2-6.2
		c0.1,0.3,0.2,0.6,0.4,0.9c0,0,0,0,0,0c-0.1-0.4-0.2-0.8-0.3-1.3c0.1-0.4,0.2-0.9,0.3-1.3c0,0,0,0,0,0c-0.1,0.3-0.2,0.6-0.4,0.9
		c-0.5-2.1-1.1-4.3-2.2-6.2c0.4-1,1.1-2.2,2.1-3.6c0.6-0.9,1.1-1.6,1.5-2.2c0,0.8,0,1.7,0,2.5c0,2.6,0,5.2,0,7.8c0,1.3,0,2.6,0,3.8
		c0,1.3,0,2.5,0.1,3.7c0,2.6,0.1,5.1,0.2,7.5c-0.4-0.7-1-1.6-1.8-2.7C16.9,239.2,16.2,238,15.8,237z M16.2,247.1
		c-1.5-2.8-2.6-5.1-3.3-7.1c0.3-0.2,0.6-0.4,0.9-0.7c0.3-0.3,0.6-0.5,0.8-0.8c0.4,1.2,1.2,2.5,2.4,4.3c1.1,1.6,1.7,2.5,1.8,2.7
		c0.4,0.7,0.7,1.4,0.9,2.1c0,0.6,0,1.1,0.1,1.7c0.1,2,0.2,3.8,0.2,5.3c0,0.7,0.1,1.3,0.1,1.9C19.6,254.2,18.3,251,16.2,247.1z"/>
	<path id="XMLID_163_" d="M20.7,259.9c-0.1,0-0.1,0-0.2,0c0,0,0,0,0,0c0,0-0.1,0-0.1,0c-0.5,0-1,0.2-1.4,0.6
		c-0.5,0.4-0.9,1.1-0.9,1.8c0,0.3,0.1,0.7,0.2,1c0.1,0.3,0.3,0.5,0.5,0.7c0.1,0.1,0.3,0.2,0.4,0.3c0.3,0.2,0.6,0.3,0.9,0.3
		c0.1,0,0.2,0,0.3,0c0.6,0,0.7-0.2,1.1-0.6c0.5-0.4,0.4-1,0.4-1.6c0,0,0,0,0,0c0-0.1,0.5-0.1,0.5-0.2c0-0.1,0.2-0.1,0.2-0.2
		C22.6,261,21.9,260,20.7,259.9z"/>
	<circle id="XMLID_162_" cx="9.6" cy="274" r="2.4"/>
</g>
<g id="XMLID_158_">
	<path id="XMLID_211_" d="M280.9,87.3C280.9,87.3,280.9,87.3,280.9,87.3C280.9,87.3,280.9,87.3,280.9,87.3c0.1-0.1,0.1-0.1,0.1-0.2
		c2.1-4.3-0.1-7.4-0.1-7.4l-0.1,0c-0.6-0.9-1.5-1.4-2.6-1.6c-1-0.2-2.4-0.1-3.2,0.9c-0.3,0.3-0.4,1-0.3,1.5c0.1,0.4,0.5,0.6,0.7,0.1
		c-0.3-0.3-0.5-1,0-1.2c0.7-0.3,1.2,0.7,1.2,1.3c0.1,0.8-0.3,1.5-0.3,2.3c0,0.9,0.5,1.8,1.3,2.2c-0.5-0.1-0.3,2.4-0.3,2.7
		c0,0.9-0.3,2.2-1.1,2.8c0.7-0.8,1-2.1,0.9-3.2c-0.1-0.6-0.5-1.4-1-1.6c-0.3-0.2-0.9-0.2-1.1,0.2c-0.2,0.5,0.4,0.2,0.4,0.5
		c0,0.1-0.7,0.3-0.8,0.4c-0.8,0.6-1.2,1.7-1.3,2.7c-0.2-0.4-1.3,0.6-1.5,0.8c-0.4,0.3-0.9,0.7-1.4,0.9c0,0-0.1,0-0.1,0
		c0.6-0.3,0.7-1,0.7-1.6c-0.4,0.1-0.7,0-1.1,0c-0.5,0-1,0.3-1.5,0.4c-0.1,0-0.1,0-0.2,0c-0.4-0.3-0.7-0.6-1.1-1
		c-1.8-1.9-2.7-4.3-2.7-7.3c0-2.2,1.1-5.4,3.4-9.9c1.9-3.6,3.1-6.1,3.6-7.5c0.1-0.4,0.3-0.8,0.4-1.2c1.1,0.4,2.2,0.4,3.4,0.1
		c-0.4,1.9-1.4,4.2-2.9,6.9c-0.9,1.5-1.5,2.6-1.9,3.3c-0.6,1.2-1.1,2.3-1.4,3.3c-0.4,1.2-0.5,2.4-0.5,3.4c0,2.3,0.7,4.4,2.4,7.1
		l0.1-0.3c-0.8-1.5-1.2-2.9-1.4-4.2c0.9,1.4,2.9,1.4,3.1,0.5c0.2-1-0.6-1.3-0.6-0.7s0.3,0.5,0.3,0.5c0,0.2-0.2,0.6-1.1,0.4
		c-1-0.3-0.7-1.9,0-2.6c0.7-0.6,1.6-1.7,0-2.9c-0.5-0.4-0.7-0.7-0.9-1.1c0-0.1,0.1-0.2,0.1-0.3c0.3,0.8,1.1,0.8,1.2,0.7
		c0.1-0.1,0.3-0.7-0.1-1.2c-0.2-0.2-0.3-0.5-0.4-0.7c0,0,0,0.1,0,0.1l0,0c0,0,0-0.1,0-0.2c0.3-0.5,0.6-1.1,0.9-1.7
		c0.4-0.2,0.8-0.2,0.8-0.2c0-1.3,0.7-2.5,0.7-2.5s0,0,0,0c0.9-1.7,1.6-3.3,2.1-4.9c0.3-1.1,0.5-2.2,0.6-3.1c0.8-0.4,1.6-1,2.1-1.9
		c0.6-0.9,1-2.2,0.6-3.7c-0.2-0.9-0.9-1.9-1.9-2.6c-0.8-0.5-2-0.8-3.3-0.1c-1,0.5-2.1,2.9-0.6,4.1c0.5,0.4,1.4,0.5,1.9,0.1
		c0.2,0.8,0.4,1.7,0.4,2.4c0,0.2,0,0.4,0,0.6c-1.1,0.4-2.4,0.4-3.4,0.1c0.1-0.7,0.2-1.5,0.2-2.3c0-1.9-0.8-3.9-1.6-5.1
		c0.4,1.5,0.7,2.7,0.7,3.9c0,0.8-0.2,1.7-0.5,2.9c-0.7-0.4-1.3-1-1.8-1.6c0-0.2,0-0.4,0-0.6c0-2.3-0.8-4.4-2-5.7l-0.1,0.2
		c0.5,1.1,0.8,1.6,0.8,1.7c0.3,0.6,0.4,1.2,0.4,1.7c0,0.4-0.1,0.8-0.2,1.2c-0.3-0.5-0.6-1.1-0.8-1.6c-0.6-1.3-1.1-2.7-1.6-3.9
		c0.5-1.3,1-2.6,1.6-3.9c0.2-0.5,0.5-1.1,0.8-1.6c0.1,0.4,0.2,0.9,0.2,1.2c0,0.5-0.1,1.1-0.4,1.7c0,0.1-0.3,0.7-0.8,1.7l0.1,0.2
		c1.2-1.3,2-3.4,2-5.7c0-0.2,0-0.4-0.1-0.6c0.5-0.6,1.1-1.2,1.8-1.6c0.4,1.2,0.5,2.1,0.5,2.9c0,1.2-0.3,2.5-0.7,3.9
		c0.9-1.1,1.6-3.2,1.6-5.1c0-0.8-0.1-1.6-0.2-2.3c1-0.3,2.3-0.3,3.4,0.1c0,0.2,0,0.4,0,0.6c0,0.7-0.1,1.6-0.3,2.4
		c-0.5-0.4-1.4-0.3-1.9,0.1c-1.5,1.2-0.4,3.6,0.6,4.1c1.3,0.7,2.5,0.4,3.3-0.1c1-0.6,1.7-1.6,1.9-2.6c0.4-1.4,0-2.7-0.6-3.7
		c-0.5-0.9-1.3-1.5-2.1-1.9c-0.1-0.9-0.3-2-0.6-3.1c-0.4-1.6-1.1-3.2-2.1-4.9c0,0,0,0,0,0s-0.7-1.2-0.7-2.5c0,0-0.4,0-0.8-0.2
		c-0.3-0.6-0.6-1.2-0.9-1.7c0-0.1,0-0.2,0-0.2l0,0c0,0,0,0.1,0,0.1c0.1-0.3,0.2-0.5,0.4-0.7c0.5-0.5,0.2-1,0.1-1.2
		c-0.1-0.2-0.9-0.2-1.2,0.7c0-0.1-0.1-0.2-0.1-0.3c0.1-0.4,0.4-0.8,0.9-1.1c1.6-1.2,0.7-2.3,0-2.9c-0.7-0.6-1.1-2.3,0-2.6
		c0.9-0.2,1.1,0.2,1.1,0.4c0,0-0.4,0-0.3,0.5c0.1,0.5,0.9,0.2,0.6-0.7c-0.2-0.9-2.2-0.9-3.1,0.5c0.2-1.3,0.7-2.7,1.4-4.2l-0.1-0.3
		c-1.7,2.6-2.4,4.8-2.4,7.1c0,1.1,0.2,2.2,0.5,3.4c0.3,1,0.8,2.1,1.4,3.3c0.4,0.7,1,1.8,1.9,3.3c1.5,2.7,2.5,4.9,2.9,6.8
		c-1.2-0.3-2.4-0.2-3.4,0.2c-0.1-0.4-0.2-0.8-0.3-1.1c-0.5-1.4-1.7-3.9-3.6-7.5c-2.4-4.5-3.4-7.7-3.4-9.9c0-0.1,0-0.2,0-0.3
		c-0.4,0.2-0.9,0.3-1.4,0.3c0,0-0.1,0-0.1,0c0,0-0.1,0-0.1,0c-0.1,0-0.2,0-0.3,0c-0.1,1.1-0.1,2.3-0.2,3.7c-0.1,1.6-0.2,3.4-0.2,5.3
		c-0.1,3.9-0.3,8.4-0.4,13.3c0,1.2,0,2.5-0.1,3.7c0,1.3,0,2.5,0,3.8c0,2.6,0,5.2,0,7.7c0,2.6,0,5.2,0,7.7c0,0.6,0,1.3,0,1.9
		c0,0.6,0,1.3,0,1.9c0,1.3,0,2.5,0.1,3.7c0,2.4,0.1,4.8,0.2,7c0.1,2.2,0.1,4.3,0.2,6.3c0.1,1.9,0.2,3.7,0.2,5.3
		c0.1,1.6,0.2,3,0.2,4.1c0.1,1.1,0.1,2,0.2,2.6c0,0.6,0.1,0.9,0.1,0.9s0-0.3,0.1-0.9c0-0.6,0.1-1.5,0.2-2.6c0.1-1.1,0.1-2.5,0.2-4.1
		c0.1-1.6,0.2-3.4,0.2-5.3c0.1-1.4,0.1-3,0.2-4.6c-0.5-1.2-0.7-2.4-0.7-3.8l0.1-1.4c0.1-1,0.4-2.2,0.9-3.6c0-1.2,0-2.5,0.1-3.7
		c0-0.6,0-1.3,0-1.9c0-0.6,0-1.3,0-1.9c0-0.1,0-0.2,0-0.3c0-1.2,0-2.5,0-3.7c0-1.3,0-2.5,0-3.8c0-2.6,0-5.2,0-7.7c0-1.3,0-2.5,0-3.8
		c0-1.3,0-2.5-0.1-3.7c0-2.3-0.1-4.5-0.1-6.6c0.4,0.7,1,1.7,1.8,2.9c1,1.4,1.7,2.6,2.1,3.6c-1.1,1.9-1.7,4.1-2.2,6.2
		c-0.1-0.3-0.2-0.6-0.4-0.9c0,0,0,0,0,0c0.1,0.4,0.2,0.8,0.3,1.3c-0.1,0.4-0.2,0.9-0.3,1.3c0,0,0,0,0,0c0.1-0.3,0.2-0.6,0.4-0.9
		c0.5,2.1,1.1,4.3,2.2,6.2c-0.4,1-1.1,2.2-2.1,3.6c-0.6,0.9-1.2,1.7-1.6,2.4c0,1.2,0,2.5,0,3.7c0.2-0.4,0.4-0.8,0.6-1.2
		c0.1-0.2,0.7-1.1,1.8-2.7c1.2-1.8,2-3.2,2.4-4.3c0.3,0.3,0.5,0.6,0.8,0.8c0.3,0.3,0.6,0.5,1,0.7c-0.7,1.9-1.7,4.3-3.3,7.1
		c-1.5,2.8-2.7,5.3-3.3,7.4c-0.5,1.4-0.8,2.6-0.9,3.6l-0.1,1.4c0,1.3,0.2,2.5,0.7,3.7c0,0,0,0,0,0c0.5,1.3,1.3,2.4,2.4,3.5
		c2,2.1,4.4,3.2,7,3.2c2.9,0,5.2-1.1,6.9-3.4C280.5,88.2,280.8,87.6,280.9,87.3z M274.9,48c0.1-0.2,0.2-0.3,0.3-0.5
		C275.3,47.7,275.1,48,274.9,48z M276.2,44.2c0.6,0.4,1.2,0.9,1.5,1.7c0.5,1,0.5,2.6-0.5,3.7c-0.4,0.4-1.1,0.8-1.6,0.9
		c-0.4,0.1-1,0-1.4-0.2c-0.8-0.4-1.4-1.3-1-2.2c0.2-0.4,0.8-1,1.4-0.9c0.2,0,0.3,0.1,0.4,0.2c-0.1,0.3-0.2,0.6-0.3,0.9
		c-0.1,0.1,0,0.3,0.2,0.3c0.5,0,0.8-0.8,0.6-1.3C275.8,46.2,276.1,45.1,276.2,44.2z M266.2,40.4c-1.1-1.6-1.7-2.5-1.8-2.7
		c-0.5-0.8-0.8-1.6-1-2.3c0-0.8-0.1-1.6-0.1-2.3c0-0.3,0-0.5,0-0.8l0-0.2c0,0,0,0,0,0.1c-0.1-1.6-0.1-3-0.2-4.4c0-0.5,0-0.9-0.1-1.4
		c0.5,2.4,1.8,5.7,4,9.7c1.5,2.8,2.6,5.1,3.3,7.1c-0.3,0.2-0.6,0.4-0.9,0.7c-0.3,0.3-0.6,0.5-0.8,0.8
		C268.2,43.6,267.4,42.2,266.2,40.4z M274.9,57.7c0.1,0.1,0.3,0.3,0.3,0.5C275.1,58,275,57.8,274.9,57.7z M275.4,58.5
		c0.3-0.5-0.1-1.3-0.6-1.3c-0.2,0-0.2,0.2-0.2,0.3l0,0l0,0c0,0,0,0,0,0c0.1,0.3,0.2,0.6,0.3,0.9c-0.1,0.1-0.3,0.1-0.4,0.1
		c-0.6,0.1-1.2-0.4-1.4-0.9c-0.3-0.9,0.2-1.8,1-2.2c0.4-0.2,1-0.3,1.4-0.2c0.5,0.1,1.2,0.4,1.6,0.9c1,1.1,1,2.7,0.5,3.7
		c-0.4,0.8-0.9,1.3-1.5,1.7C276.1,60.6,275.8,59.5,275.4,58.5z"/>
	<path id="XMLID_210_" d="M281,18.6c2.1,4.3-0.1,7.4-0.1,7.4l-0.1,0c-0.6,0.9-1.5,1.4-2.6,1.6c-1,0.2-2.4,0.1-3.2-0.9
		c-0.3-0.3-0.4-1-0.3-1.5c0.1-0.4,0.5-0.6,0.7-0.1c-0.3,0.3-0.5,1,0,1.2c0.7,0.3,1.2-0.7,1.2-1.3c0.1-0.8-0.3-1.5-0.3-2.3
		c0-0.9,0.5-1.8,1.3-2.2c-0.5,0.1-0.3-2.4-0.3-2.7c0-0.9-0.3-2.2-1.1-2.8c0.7,0.8,1,2.1,0.9,3.2c-0.1,0.6-0.5,1.4-1,1.6
		c-0.3,0.2-0.9,0.2-1.1-0.2c-0.2-0.5,0.4-0.2,0.4-0.5c0-0.1-0.7-0.3-0.8-0.4c-0.8-0.6-1.2-1.7-1.3-2.7c-0.2,0.4-1.3-0.6-1.5-0.8
		c-0.4-0.3-0.9-0.7-1.4-0.9c0,0-0.1,0-0.1,0c0.6,0.3,0.7,1,0.7,1.6c-0.4-0.1-0.7,0-1.1,0c-0.5,0-1-0.3-1.5-0.4c0,0,0,0,0,0
		c-0.3,0.4-0.7,0.8-1.1,1.2c-0.3,0.3-0.7,0.6-1,0.9c0,0,0,0,0,0c0,0,0,0,0,0c-0.2-0.3-0.4-0.6-0.7-0.8c0,0,0,0,0,0
		c0,0,0.1-0.1,0.1-0.1c0.1-0.2,0.3-0.3,0.5-0.5c0.6-0.6,1.3-1.2,1.9-1.6c0,0,0-0.1,0.1-0.1c0-0.1,0-0.1,0-0.2
		c-0.1-0.5-0.4-1-0.4-1.5c0-0.4,0.1-0.8,0-1.1c0.6,0,1.3,0.2,1.6,0.7c0,0,0-0.1,0-0.1c-0.2-0.5-0.5-1-0.9-1.4
		c-0.1-0.2-1.1-1.3-0.8-1.5c-1-0.1-2.1-0.5-2.7-1.3c-0.1-0.1-0.3-0.8-0.4-0.8c-0.3,0,0.1,0.6-0.5,0.4c-0.4-0.1-0.3-0.8-0.2-1.1
		c0.3-0.6,1-1,1.6-1c1.1-0.1,2.4,0.1,3.2,0.9c-0.5-0.9-1.8-1.1-2.8-1.1c-0.3,0-2.8,0.2-2.7-0.3c-0.4,0.8-1.3,1.3-2.2,1.3
		c-0.8,0-1.5-0.3-2.3-0.3c-0.5,0-1.6,0.5-1.3,1.2c0.2,0.5,0.9,0.3,1.2,0c0.5,0.2,0.2,0.5-0.1,0.7c-0.4,0.1-1.1,0-1.5-0.3
		c-0.9-0.7-1.1-2.1-0.9-3.2c0.2-1,0.8-1.9,1.6-2.6l0-0.1c0,0,3-2.2,7.4-0.1c0,0,0.1,0,0.1,0.1c0,0,0,0,0,0c0,0,0.1,0,0.1,0
		c0.3,0.1,0.8,0.4,1.7,1c2.2,1.8,3.4,4.1,3.4,6.9c0,1.4-0.3,2.7-0.9,4c1.1-0.5,2.2-0.7,3.5-0.7c2.9,0,5.2,1.1,6.9,3.4
		c0.6,0.8,1,1.4,1,1.7c0,0,0,0.1,0,0.1c0,0,0,0,0,0C280.9,18.5,280.9,18.5,281,18.6z"/>
	<path id="XMLID_201_" d="M258.7,20.4c0-0.1,0-0.2,0-0.3c0,0,0-0.1,0-0.1c0-0.1,0-0.1,0-0.2c0-0.5,0.1-0.9,0.3-1.3
		c-2.2-0.2-5.2-1.3-9.3-3.4c-3.6-1.9-6.1-3.1-7.5-3.6c-0.4-0.1-0.7-0.2-1.1-0.3c0.4-1.1,0.5-2.2,0.2-3.4c1.9,0.4,4.2,1.4,6.8,2.9
		c1.5,0.9,2.6,1.5,3.3,1.9c1.2,0.6,2.3,1.1,3.3,1.4c1.2,0.4,2.4,0.5,3.4,0.5c2.3,0,4.4-0.7,7.1-2.4l-0.3-0.1
		c-1.5,0.8-2.9,1.2-4.2,1.4c1.4-0.9,1.4-2.9,0.5-3.1c-1-0.2-1.3,0.6-0.7,0.6c0.5,0.1,0.5-0.3,0.5-0.3c0.2,0,0.6,0.2,0.4,1.1
		c-0.3,1-1.9,0.7-2.6,0c-0.6-0.7-1.7-1.6-2.9,0c-0.4,0.5-0.7,0.7-1.1,0.9c-0.1,0-0.2-0.1-0.3-0.1c0.8-0.3,0.8-1.1,0.7-1.2
		c-0.1-0.1-0.7-0.3-1.2,0.2c-0.2,0.2-0.5,0.6-0.7,0.6c0,0,0.1,0,0.1,0l0-0.1c0,0-0.1-0.1-0.2-0.1c-0.5-0.3-1.1-0.6-1.7-0.9
		c-0.2-0.4-0.2-0.8-0.2-0.8c-1.3,0-2.5-0.7-2.5-0.7s0,0,0,0c-1.7-0.9-3.3-1.6-4.9-2.1c-1.1-0.3-2.1-0.5-3.1-0.6
		c-0.4-0.8-1-1.6-1.9-2.1c-0.9-0.6-2.2-1-3.7-0.6c-0.9,0.2-1.9,0.9-2.6,1.9c-0.5,0.8-0.8,2-0.1,3.3c0.5,1,2.9,2.1,4.1,0.6
		c0.4-0.5,0.5-1.4,0.1-1.9c0.8-0.2,1.7-0.4,2.4-0.4c0.2,0,0.4,0,0.6,0c0.4,1.1,0.4,2.4,0.1,3.4c-0.7-0.1-1.5-0.2-2.3-0.2
		c-1.9,0-3.9,0.8-5.1,1.6c1.5-0.4,2.7-0.7,3.9-0.7c0.8,0,1.8,0.2,2.9,0.5c-0.4,0.7-1,1.3-1.6,1.8c-0.2,0-0.4-0.1-0.6-0.1
		c-2.3,0-4.4,0.8-5.7,2l0.2,0.1c1.1-0.5,1.6-0.8,1.7-0.8c0.6-0.3,1.2-0.4,1.7-0.4c0.4,0,0.8,0.1,1.2,0.2c-0.5,0.3-1.1,0.6-1.6,0.8
		c-1.3,0.6-2.7,1.1-3.9,1.6c-1.3-0.5-2.6-1-3.9-1.6c-0.5-0.2-1.1-0.5-1.6-0.8c0.4-0.1,0.8-0.2,1.2-0.2c0.5,0,1.1,0.1,1.7,0.4
		c0.1,0,0.7,0.3,1.7,0.8l0.2-0.1c-1.3-1.2-3.4-2-5.7-2c-0.2,0-0.4,0-0.6,0c-0.6-0.5-1.2-1.1-1.6-1.8c1.1-0.3,2.1-0.5,2.9-0.5
		c1.2,0,2.5,0.3,3.9,0.7c-1.1-0.9-3.2-1.6-5.1-1.6c-0.8,0-1.6,0.1-2.3,0.2c-0.3-1-0.3-2.3,0.1-3.4c0.2,0,0.4,0,0.6,0
		c0.7,0,1.6,0.1,2.4,0.4c-0.4,0.5-0.3,1.4,0.1,1.9c1.2,1.5,3.6,0.4,4.1-0.6c0.7-1.3,0.4-2.5-0.1-3.3c-0.6-1-1.6-1.7-2.6-1.9
		c-1.4-0.4-2.7,0-3.7,0.6c-0.9,0.5-1.5,1.3-1.9,2.1c-0.9,0.1-2,0.3-3.1,0.6c-1.6,0.4-3.2,1.2-4.9,2.1c0,0,0,0,0,0s-1.2,0.7-2.5,0.7
		c0,0,0,0.4-0.2,0.8c-0.6,0.3-1.2,0.7-1.7,0.9c-0.1,0-0.2,0-0.2,0l0,0.1c0,0,0.1,0,0.1,0c-0.3,0-0.5-0.4-0.7-0.6
		c-0.5-0.5-1-0.3-1.2-0.3c-0.2,0.1-0.2,0.9,0.7,1.2c-0.1,0-0.2,0.1-0.3,0.1c-0.4-0.1-0.8-0.4-1.1-0.9c-1.2-1.6-2.3-0.7-2.9,0
		c-0.6,0.7-2.3,1.1-2.6,0c-0.2-0.9,0.2-1.1,0.4-1.1c0,0,0,0.4,0.5,0.3c0.5-0.1,0.2-0.9-0.7-0.6c-0.9,0.2-0.9,2.2,0.5,3.1
		c-1.3-0.2-2.7-0.7-4.2-1.4l-0.3,0.1c2.6,1.7,4.8,2.4,7.1,2.4c1.1,0,2.2-0.2,3.4-0.5c1-0.3,2.1-0.8,3.3-1.4c0.7-0.4,1.8-1,3.3-1.9
		c2.7-1.5,5-2.5,6.9-2.9c-0.3,1.2-0.2,2.4,0.1,3.4c-0.4,0.1-0.8,0.2-1.2,0.4c-1.4,0.5-3.9,1.7-7.5,3.6c-4.5,2.3-7.7,3.4-9.9,3.4
		c-2.9,0-5.3-0.9-7.3-2.7c-0.4-0.3-0.7-0.7-1-1.1c0-0.1,0-0.1,0-0.2c0.1-0.5,0.4-1,0.4-1.5c0-0.4-0.1-0.8,0-1.1
		c-0.6,0-1.3,0.2-1.6,0.7c0,0,0-0.1,0-0.1c0.2-0.5,0.5-1,0.9-1.4c0.1-0.2,1.1-1.3,0.8-1.5c1-0.1,2.1-0.5,2.7-1.3
		c0.1-0.1,0.3-0.8,0.4-0.8c0.3,0-0.1,0.6,0.5,0.4c0.4-0.1,0.3-0.8,0.2-1.1c-0.3-0.6-1-1-1.6-1c-1.1-0.1-2.4,0.1-3.2,0.9
		c0.5-0.9,1.8-1.1,2.8-1.1c0.3,0,2.8,0.2,2.7-0.3c0.4,0.8,1.3,1.3,2.2,1.3c0.8,0,1.5-0.3,2.3-0.3c0.5,0,1.6,0.5,1.3,1.2
		c-0.2,0.5-0.9,0.3-1.2,0c-0.5,0.2-0.2,0.5,0.1,0.7c0.4,0.1,1.1,0,1.5-0.3c0.9-0.7,1.1-2.1,0.9-3.2c-0.2-1-0.8-1.9-1.6-2.6l0-0.1
		c0,0-3-2.2-7.4-0.1c0,0-0.1,0-0.1,0.1c0,0,0,0,0,0c0,0-0.1,0-0.1,0c-0.3,0.1-0.8,0.4-1.7,1c-2.2,1.8-3.4,4.1-3.4,6.9
		c0,2.6,1.1,5,3.2,7c1,1,2.1,1.7,3.2,2.2c-1.9,0.1-3.8,0.1-5.5,0.2c-2,0.1-3.8,0.2-5.3,0.2c-1.6,0.1-3,0.2-4.1,0.2
		c-1.1,0.1-2,0.1-2.7,0.2c-0.6,0-0.9,0.1-0.9,0.1s0.3,0,0.9,0.1c0.6,0,1.5,0.1,2.7,0.2c1.1,0.1,2.5,0.1,4.1,0.2
		c1.6,0.1,3.4,0.2,5.3,0.2c2,0.1,4.1,0.1,6.3,0.2c2.2,0.1,4.6,0.1,7.1,0.2c1.2,0,2.5,0,3.7,0.1c0.6,0,1.3,0,1.9,0c0.6,0,1.3,0,1.9,0
		c2.6,0,5.2,0,7.8,0c2.6,0,5.2,0,7.8,0c1.3,0,2.6,0,3.8,0c1.3,0,2.5,0,3.7-0.1c4.9-0.1,9.5-0.2,13.4-0.4c2-0.1,3.8-0.2,5.3-0.2
		C256.4,20.5,257.7,20.4,258.7,20.4z M222.1,6.8c0.4-0.6,0.9-1.2,1.7-1.5c1-0.5,2.6-0.5,3.7,0.5c0.4,0.4,0.8,1.1,0.9,1.6
		c0.1,0.4,0,1-0.2,1.4c-0.4,0.8-1.3,1.4-2.2,1c-0.4-0.2-1-0.8-0.9-1.4c0-0.2,0.1-0.3,0.2-0.4c0.3,0.1,0.6,0.2,0.9,0.3c0,0,0,0,0,0h0
		l0,0c0.1,0,0.3,0,0.3-0.2c0-0.5-0.8-0.8-1.3-0.6C224.1,7.1,223.1,6.9,222.1,6.8z M226,8c-0.2-0.1-0.3-0.2-0.5-0.3
		C225.7,7.7,225.9,7.8,226,8z M239.5,6.8c-0.9,0.1-2,0.4-3,0.8c-0.5-0.3-1.3,0-1.3,0.6c0,0.2,0.2,0.2,0.3,0.2
		c0.3-0.1,0.6-0.2,0.9-0.3c0.1,0.1,0.1,0.3,0.2,0.4c0.1,0.6-0.4,1.2-0.9,1.4c-0.9,0.3-1.8-0.2-2.2-1c-0.2-0.4-0.3-1-0.2-1.4
		c0.1-0.5,0.4-1.2,0.9-1.6c1.1-1,2.7-1,3.7-0.5C238.6,5.6,239.1,6.1,239.5,6.8z M235.6,8c0.1-0.2,0.3-0.3,0.5-0.3
		C236,7.8,235.8,7.9,235.6,8z M222.7,14.3c-1.2,0.4-2.5,1.2-4.3,2.4c-1.6,1.1-2.5,1.7-2.7,1.8c-0.3,0.2-0.6,0.3-0.9,0.5
		c-0.6,0-1.1,0-1.7,0c-0.6,0-1.3,0-1.9,0c-0.6,0-1.3,0-1.9,0c-0.7,0-1.5,0-2.2,0c2-0.7,4.3-1.8,7-3.2c2.8-1.5,5.2-2.6,7.1-3.3
		c0.2,0.3,0.4,0.7,0.7,0.9C222.2,13.8,222.4,14.1,222.7,14.3z M241,17.5c1.1,0.8,2,1.3,2.7,1.8c-2.4-0.1-4.9-0.1-7.5-0.2
		c-1.2,0-2.5,0-3.7-0.1c-1.3,0-2.5,0-3.8,0c-2.6,0-5.2,0-7.8,0c-0.8,0-1.7,0-2.5,0c0.6-0.4,1.4-0.9,2.2-1.5c1.4-1,2.6-1.7,3.6-2.1
		c1.9,1.1,4.1,1.7,6.2,2.2c-0.3,0.1-0.6,0.2-0.9,0.4c0,0,0,0,0,0c0.4-0.1,0.8-0.2,1.3-0.3c0.4,0.1,0.9,0.2,1.3,0.3c0,0,0,0,0,0
		c-0.3-0.1-0.6-0.2-0.9-0.4c2.1-0.5,4.3-1.1,6.2-2.2C238.4,15.8,239.6,16.5,241,17.5z M256.9,19.8c-0.6,0-1.2-0.1-1.9-0.1
		c-1.6-0.1-3.4-0.2-5.3-0.2c-0.6,0-1.1,0-1.7-0.1c-0.7-0.2-1.4-0.5-2.1-0.9c-0.2-0.1-1.1-0.7-2.7-1.8c-1.8-1.2-3.2-2-4.3-2.4
		c0.3-0.3,0.6-0.5,0.8-0.8c0.2-0.3,0.5-0.6,0.7-0.9c1.9,0.7,4.3,1.8,7.1,3.3C251.4,17.9,254.5,19.2,256.9,19.8z"/>
	<path id="XMLID_200_" d="M260.3,20.3c0-0.1,0-0.1,0-0.2c0,0,0,0,0,0c0,0,0-0.1,0-0.1c0-0.5,0.2-1,0.6-1.4c0.4-0.5,1.1-0.9,1.8-0.9
		c0.3,0,0.7,0.1,1,0.2c0.3,0.1,0.5,0.3,0.7,0.5c0.1,0.1,0.2,0.3,0.3,0.4c0.2,0.3,0.3,0.6,0.3,0.9c0,0.1,0,0.2,0,0.3
		c0,0.6-0.2,0.9-0.6,1.3c-0.4,0.5-1,0.5-1.6,0.5c0,0,0,0,0,0c-0.1,0-0.1,0.3-0.2,0.3c-0.1,0-0.1,0.1-0.2,0.1
		C261.3,22.3,260.4,21.5,260.3,20.3z"/>
	<circle id="XMLID_199_" cx="274.3" cy="9.3" r="2.4"/>
</g>
</svg>
